<svg id="visual" viewBox="0 0 900 150" width="900" height="150" xmlns="http://www.w3.org/2000/svg" xmlns:xlink="http://www.w3.org/1999/xlink" version="1.1"><rect x="0" y="0" width="900" height="150" fill="#050505"></rect><path d="M0 85L21.5 81.5C43 78 86 71 128.8 69.7C171.7 68.3 214.3 72.7 257.2 73.7C300 74.7 343 72.3 385.8 70.7C428.7 69 471.3 68 514.2 70.8C557 73.7 600 80.3 642.8 81.3C685.7 82.3 728.3 77.7 771.2 79.2C814 80.7 857 88.3 878.5 92.2L900 96L900 151L878.5 151C857 151 814 151 771.2 151C728.3 151 685.7 151 642.8 151C600 151 557 151 514.2 151C471.3 151 428.7 151 385.8 151C343 151 300 151 257.2 151C214.3 151 171.7 151 128.8 151C86 151 43 151 21.5 151L0 151Z" fill="#9254e3"></path><path d="M0 95L21.5 93C43 91 86 87 128.8 88.2C171.7 89.3 214.3 95.7 257.2 99.3C300 103 343 104 385.8 103.5C428.7 103 471.3 101 514.2 98.5C557 96 600 93 642.8 90C685.7 87 728.3 84 771.2 82.5C814 81 857 81 878.5 81L900 81L900 151L878.5 151C857 151 814 151 771.2 151C728.3 151 685.7 151 642.8 151C600 151 557 151 514.2 151C471.3 151 428.7 151 385.8 151C343 151 300 151 257.2 151C214.3 151 171.7 151 128.8 151C86 151 43 151 21.5 151L0 151Z" fill="#a489f1"></path><path d="M0 122L21.5 119.7C43 117.3 86 112.7 128.8 109.5C171.7 106.3 214.3 104.7 257.2 106.7C300 108.7 343 114.3 385.8 114C428.7 113.7 471.3 107.3 514.2 105.3C557 103.3 600 105.7 642.8 107.7C685.7 109.7 728.3 111.3 771.2 110.5C814 109.7 857 106.3 878.5 104.7L900 103L900 151L878.5 151C857 151 814 151 771.2 151C728.3 151 685.7 151 642.8 151C600 151 557 151 514.2 151C471.3 151 428.7 151 385.8 151C343 151 300 151 257.2 151C214.3 151 171.7 151 128.8 151C86 151 43 151 21.5 151L0 151Z" fill="#c0b8f7"></path><path d="M0 137L21.5 133.8C43 130.7 86 124.3 128.8 122.3C171.7 120.3 214.3 122.7 257.2 124.5C300 126.3 343 127.7 385.8 128.8C428.7 130 471.3 131 514.2 130.3C557 129.7 600 127.3 642.8 126.8C685.7 126.3 728.3 127.7 771.2 128C814 128.3 857 127.7 878.5 127.3L900 127L900 151L878.5 151C857 151 814 151 771.2 151C728.3 151 685.7 151 642.8 151C600 151 557 151 514.2 151C471.3 151 428.7 151 385.8 151C343 151 300 151 257.2 151C214.3 151 171.7 151 128.8 151C86 151 43 151 21.5 151L0 151Z" fill="#e5e5f7"></path></svg>