<svg id="visual" viewBox="0 0 900 150" width="900" height="150" xmlns="http://www.w3.org/2000/svg" xmlns:xlink="http://www.w3.org/1999/xlink" version="1.1"><rect x="0" y="0" width="900" height="150" fill="#050505"></rect><path d="M0 63L21.5 66.5C43 70 86 77 128.8 78.3C171.7 79.7 214.3 75.3 257.2 74.3C300 73.3 343 75.7 385.8 77.3C428.7 79 471.3 80 514.2 77.2C557 74.3 600 67.7 642.8 66.7C685.7 65.7 728.3 70.3 771.2 68.8C814 67.3 857 59.7 878.5 55.8L900 52L900 0L878.5 0C857 0 814 0 771.2 0C728.3 0 685.7 0 642.8 0C600 0 557 0 514.2 0C471.3 0 428.7 0 385.8 0C343 0 300 0 257.2 0C214.3 0 171.7 0 128.8 0C86 0 43 0 21.5 0L0 0Z" fill="#9254e3"></path><path d="M0 53L21.5 55C43 57 86 61 128.8 59.8C171.7 58.7 214.3 52.3 257.2 48.7C300 45 343 44 385.8 44.5C428.7 45 471.3 47 514.2 49.5C557 52 600 55 642.8 58C685.7 61 728.3 64 771.2 65.5C814 67 857 67 878.5 67L900 67L900 0L878.5 0C857 0 814 0 771.2 0C728.3 0 685.7 0 642.8 0C600 0 557 0 514.2 0C471.3 0 428.7 0 385.8 0C343 0 300 0 257.2 0C214.3 0 171.7 0 128.8 0C86 0 43 0 21.5 0L0 0Z" fill="#a489f1"></path><path d="M0 26L21.5 28.3C43 30.7 86 35.3 128.8 38.5C171.7 41.7 214.3 43.3 257.2 41.3C300 39.3 343 33.7 385.8 34C428.7 34.3 471.3 40.7 514.2 42.7C557 44.7 600 42.3 642.8 40.3C685.7 38.3 728.3 36.7 771.2 37.5C814 38.3 857 41.7 878.5 43.3L900 45L900 0L878.5 0C857 0 814 0 771.2 0C728.3 0 685.7 0 642.8 0C600 0 557 0 514.2 0C471.3 0 428.7 0 385.8 0C343 0 300 0 257.2 0C214.3 0 171.7 0 128.8 0C86 0 43 0 21.5 0L0 0Z" fill="#c0b8f7"></path><path d="M0 11L21.5 14.2C43 17.3 86 23.7 128.8 25.7C171.7 27.7 214.3 25.3 257.2 23.5C300 21.7 343 20.3 385.8 19.2C428.7 18 471.3 17 514.2 17.7C557 18.3 600 20.7 642.8 21.2C685.7 21.7 728.3 20.3 771.2 20C814 19.7 857 20.3 878.5 20.7L900 21L900 0L878.5 0C857 0 814 0 771.2 0C728.3 0 685.7 0 642.8 0C600 0 557 0 514.2 0C471.3 0 428.7 0 385.8 0C343 0 300 0 257.2 0C214.3 0 171.7 0 128.8 0C86 0 43 0 21.5 0L0 0Z" fill="#e5e5f7"></path></svg>